<?xml version="1.0" standalone="no"?>
<!DOCTYPE svg PUBLIC "-//W3C//DTD SVG 20010904//EN"
 "http://www.w3.org/TR/2001/REC-SVG-20010904/DTD/svg10.dtd">
<svg version="1.0" xmlns="http://www.w3.org/2000/svg"
 width="60px" height="29px" viewBox="0 0 1160.000000 564.000000"
 preserveAspectRatio="xMidYMid meet">

<g transform="translate(0.000000,564.000000) scale(0.100000,-0.100000)"
fill="#e2e7fd" stroke="none">
<path d="M200 3460 l0 -1980 3808 0 3808 0 1289 -638 1290 -638 3 638 2 638
480 0 480 0 0 1980 0 1980 -5580 0 -5580 0 0 -1980z m10620 0 l0 -1440 -475 0
-475 0 0 -475 c0 -261 -3 -475 -7 -475 -5 0 -440 214 -967 475 l-959 475
-3599 0 -3598 0 0 1440 0 1440 5040 0 5040 0 0 -1440z"/>
<path d="M1160 3480 l0 -1000 240 0 240 0 0 230 c0 127 1 230 3 230 2 0 77 27
167 60 90 33 169 60 177 60 7 0 133 -130 280 -290 l268 -290 293 0 c160 0 292
2 292 5 0 3 -144 174 -321 381 -177 206 -320 376 -318 378 2 1 146 54 319 117
l315 114 3 503 2 502 -980 0 -980 0 0 -1000z m1480 426 l0 -93 -482 -176
c-266 -96 -491 -178 -500 -182 -17 -7 -18 10 -18 269 l0 276 500 0 500 0 0
-94z"/>
<path d="M3560 3480 l0 -1000 240 0 240 0 0 300 0 300 520 0 520 0 0 -300 0
-300 240 0 240 0 0 1000 0 1000 -1000 0 -1000 0 0 -1000z m1520 300 l0 -220
-520 0 -520 0 0 220 0 220 520 0 520 0 0 -220z"/>
<path d="M6000 3860 l0 -620 740 0 740 0 0 -140 0 -140 -740 0 -740 0 0 -240
0 -240 980 0 980 0 0 620 0 620 -740 0 -740 0 0 140 0 140 740 0 740 0 0 240
0 240 -980 0 -980 0 0 -620z"/>
<path d="M8400 3480 l0 -1000 240 0 240 0 0 300 0 300 520 0 520 0 0 -300 0
-300 240 0 240 0 0 1000 0 1000 -1000 0 -1000 0 0 -1000z m1520 300 l0 -220
-520 0 -520 0 0 220 0 220 520 0 520 0 0 -220z"/>
</g>
</svg>
